<svg id="visual" viewBox="0 0 960 540" width="960" height="540" xmlns="http://www.w3.org/2000/svg" xmlns:xlink="http://www.w3.org/1999/xlink" version="1.1"><path d="M0 17L192 6L384 23L576 12L768 23L960 28L960 0L768 0L576 0L384 0L192 0L0 0Z" fill="#001122"></path><path d="M0 66L192 163L384 131L576 136L768 93L960 77L960 26L768 21L576 10L384 21L192 4L0 15Z" fill="#021426"></path><path d="M0 87L192 168L384 163L576 158L768 104L960 104L960 75L768 91L576 134L384 129L192 161L0 64Z" fill="#031729"></path><path d="M0 109L192 212L384 185L576 217L768 147L960 120L960 102L768 102L576 156L384 161L192 166L0 85Z" fill="#03192d"></path><path d="M0 136L192 255L384 201L576 228L768 174L960 152L960 118L768 145L576 215L384 183L192 210L0 107Z" fill="#041b31"></path><path d="M0 168L192 287L384 212L576 255L768 206L960 190L960 150L768 172L576 226L384 199L192 253L0 134Z" fill="#041c33"></path><path d="M0 185L192 309L384 222L576 276L768 244L960 228L960 188L768 204L576 253L384 210L192 285L0 166Z" fill="#041c33"></path><path d="M0 352L192 401L384 363L576 341L768 411L960 357L960 226L768 242L576 274L384 220L192 307L0 183Z" fill="#041b31"></path><path d="M0 379L192 428L384 406L576 363L768 433L960 422L960 355L768 409L576 339L384 361L192 399L0 350Z" fill="#03192d"></path><path d="M0 395L192 444L384 438L576 401L768 455L960 460L960 420L768 431L576 361L384 404L192 426L0 377Z" fill="#031729"></path><path d="M0 411L192 476L384 455L576 438L768 471L960 514L960 458L768 453L576 399L384 436L192 442L0 393Z" fill="#021426"></path><path d="M0 541L192 541L384 541L576 541L768 541L960 541L960 512L768 469L576 436L384 453L192 474L0 409Z" fill="#001122"></path></svg>