<svg id="visual" viewBox="0 0 960 540" width="960" height="540" xmlns="http://www.w3.org/2000/svg" xmlns:xlink="http://www.w3.org/1999/xlink" version="1.1"><rect x="0" y="0" width="960" height="540" fill="#FFFFFF"></rect><path d="M0 72L14.5 75.5C29 79 58 86 87.2 86C116.3 86 145.7 79 174.8 79.2C204 79.3 233 86.7 262 90.3C291 94 320 94 349 90.5C378 87 407 80 436.2 79.5C465.3 79 494.7 85 523.8 86C553 87 582 83 611 83C640 83 669 87 698 86.8C727 86.7 756 82.3 785.2 82.7C814.3 83 843.7 88 872.8 88.5C902 89 931 85 945.5 83L960 81L960 0L945.5 0C931 0 902 0 872.8 0C843.7 0 814.3 0 785.2 0C756 0 727 0 698 0C669 0 640 0 611 0C582 0 553 0 523.8 0C494.7 0 465.3 0 436.2 0C407 0 378 0 349 0C320 0 291 0 262 0C233 0 204 0 174.8 0C145.7 0 116.3 0 87.2 0C58 0 29 0 14.5 0L0 0Z" fill="#4338ca"></path><path d="M0 52L14.5 54.8C29 57.7 58 63.3 87.2 63C116.3 62.7 145.7 56.3 174.8 54.3C204 52.3 233 54.7 262 56.3C291 58 320 59 349 59C378 59 407 58 436.2 59.8C465.3 61.7 494.7 66.3 523.8 65.3C553 64.3 582 57.7 611 54.7C640 51.7 669 52.3 698 52.5C727 52.7 756 52.3 785.2 53.5C814.3 54.7 843.7 57.3 872.8 57C902 56.7 931 53.3 945.5 51.7L960 50L960 0L945.5 0C931 0 902 0 872.8 0C843.7 0 814.3 0 785.2 0C756 0 727 0 698 0C669 0 640 0 611 0C582 0 553 0 523.8 0C494.7 0 465.3 0 436.2 0C407 0 378 0 349 0C320 0 291 0 262 0C233 0 204 0 174.8 0C145.7 0 116.3 0 87.2 0C58 0 29 0 14.5 0L0 0Z" fill="#0d3494"></path><path d="M0 37L14.5 37.3C29 37.7 58 38.3 87.2 40.8C116.3 43.3 145.7 47.7 174.8 46.7C204 45.7 233 39.3 262 36.5C291 33.7 320 34.3 349 36.7C378 39 407 43 436.2 45C465.3 47 494.7 47 523.8 46.2C553 45.3 582 43.7 611 42.3C640 41 669 40 698 39.8C727 39.7 756 40.3 785.2 42.3C814.3 44.3 843.7 47.7 872.8 49.2C902 50.7 931 50.3 945.5 50.2L960 50L960 0L945.5 0C931 0 902 0 872.8 0C843.7 0 814.3 0 785.2 0C756 0 727 0 698 0C669 0 640 0 611 0C582 0 553 0 523.8 0C494.7 0 465.3 0 436.2 0C407 0 378 0 349 0C320 0 291 0 262 0C233 0 204 0 174.8 0C145.7 0 116.3 0 87.2 0C58 0 29 0 14.5 0L0 0Z" fill="#00265b"></path><path d="M0 27L14.5 24.8C29 22.7 58 18.3 87.2 18.2C116.3 18 145.7 22 174.8 24.5C204 27 233 28 262 28.7C291 29.3 320 29.7 349 27.7C378 25.7 407 21.3 436.2 18.8C465.3 16.3 494.7 15.7 523.8 15.8C553 16 582 17 611 19.5C640 22 669 26 698 28C727 30 756 30 785.2 27.8C814.3 25.7 843.7 21.3 872.8 21.3C902 21.3 931 25.7 945.5 27.8L960 30L960 0L945.5 0C931 0 902 0 872.8 0C843.7 0 814.3 0 785.2 0C756 0 727 0 698 0C669 0 640 0 611 0C582 0 553 0 523.8 0C494.7 0 465.3 0 436.2 0C407 0 378 0 349 0C320 0 291 0 262 0C233 0 204 0 174.8 0C145.7 0 116.3 0 87.2 0C58 0 29 0 14.5 0L0 0Z" fill="#001122"></path></svg>