<svg id="visual" viewBox="0 0 900 600" width="900" height="600" xmlns="http://www.w3.org/2000/svg" xmlns:xlink="http://www.w3.org/1999/xlink" version="1.1"><g stroke-width="1" stroke-linejoin="bevel"><path d="M463.9 294L530.7 270L471.9 209Z" fill="#001122" stroke="#001122"></path><path d="M471.9 209L437.1 213L463.9 294Z" fill="#001122" stroke="#001122"></path><path d="M521.7 153L487.9 168L471.9 209Z" fill="#001224" stroke="#001224"></path><path d="M471.9 209L487.9 168L437.1 213Z" fill="#001324" stroke="#001324"></path><path d="M437.1 213L395.1 261L463.9 294Z" fill="#001224" stroke="#001224"></path><path d="M487.9 168L407.1 203L437.1 213Z" fill="#001324" stroke="#001324"></path><path d="M437.1 213L407.1 203L395.1 261Z" fill="#001326" stroke="#001326"></path><path d="M530.7 270L521.7 153L471.9 209Z" fill="#001326" stroke="#001326"></path><path d="M487.9 168L378.3 142L407.1 203Z" fill="#001325" stroke="#001325"></path><path d="M338.3 232L382.3 298L395.1 261Z" fill="#001326" stroke="#001326"></path><path d="M395.1 261L382.3 298L463.9 294Z" fill="#001427" stroke="#001427"></path><path d="M382.3 298L443.9 376L463.9 294Z" fill="#001324" stroke="#001324"></path><path d="M463.9 294L581.7 369L530.7 270Z" fill="#001427" stroke="#001427"></path><path d="M581.7 369L617.7 258L530.7 270Z" fill="#001428" stroke="#001428"></path><path d="M530.7 270L597.5 153L521.7 153Z" fill="#001122" stroke="#001122"></path><path d="M617.7 258L597.5 153L530.7 270Z" fill="#001325" stroke="#001325"></path><path d="M443.9 376L581.7 369L463.9 294Z" fill="#001326" stroke="#001326"></path><path d="M378.3 142L338.3 232L407.1 203Z" fill="#001223" stroke="#001223"></path><path d="M407.1 203L338.3 232L395.1 261Z" fill="#001427" stroke="#001427"></path><path d="M597.5 153L563.7 122L521.7 153Z" fill="#001224" stroke="#001224"></path><path d="M383.1 51L378.3 142L487.9 168Z" fill="#001427" stroke="#001427"></path><path d="M383.1 51L487.9 168L485.9 0Z" fill="#001427" stroke="#001427"></path><path d="M371.1 364L440.9 404L443.9 376Z" fill="#001428" stroke="#001428"></path><path d="M443.9 376L440.9 404L581.7 369Z" fill="#001325" stroke="#001325"></path><path d="M371.1 364L443.9 376L382.3 298Z" fill="#001324" stroke="#001324"></path><path d="M321.3 407L371.1 364L286.3 371Z" fill="#001324" stroke="#001324"></path><path d="M371.1 364L438.1 417L440.9 404Z" fill="#001325" stroke="#001325"></path><path d="M440.9 404L521.7 477L581.7 369Z" fill="#001326" stroke="#001326"></path><path d="M617.7 258L647.5 193L597.5 153Z" fill="#001326" stroke="#001326"></path><path d="M686.5 16L541.9 20L563.7 122Z" fill="#001324" stroke="#001324"></path><path d="M662.5 297L647.5 193L617.7 258Z" fill="#001224" stroke="#001224"></path><path d="M581.7 369L662.5 297L617.7 258Z" fill="#001325" stroke="#001325"></path><path d="M581.7 369L651.5 399L662.5 297Z" fill="#001123" stroke="#001123"></path><path d="M636.5 498L651.5 399L581.7 369Z" fill="#001428" stroke="#001428"></path><path d="M286.3 371L371.1 364L382.3 298Z" fill="#001427" stroke="#001427"></path><path d="M371.1 364L321.3 407L438.1 417Z" fill="#001326" stroke="#001326"></path><path d="M462.9 493L521.7 477L438.1 417Z" fill="#001325" stroke="#001325"></path><path d="M438.1 417L521.7 477L440.9 404Z" fill="#001123" stroke="#001123"></path><path d="M485.9 0L487.9 168L521.7 153Z" fill="#001123" stroke="#001123"></path><path d="M196.5 139L251.5 251L338.3 232Z" fill="#001325" stroke="#001325"></path><path d="M338.3 232L286.3 371L382.3 298Z" fill="#001324" stroke="#001324"></path><path d="M251.5 251L286.3 371L338.3 232Z" fill="#001223" stroke="#001223"></path><path d="M201.5 236L251.5 251L196.5 139Z" fill="#001325" stroke="#001325"></path><path d="M686.5 16L563.7 122L597.5 153Z" fill="#001326" stroke="#001326"></path><path d="M563.7 122L541.9 20L521.7 153Z" fill="#001326" stroke="#001326"></path><path d="M361.1 531L462.9 493L438.1 417Z" fill="#001123" stroke="#001123"></path><path d="M541.9 20L485.9 0L521.7 153Z" fill="#001224" stroke="#001224"></path><path d="M541.9 20L514.7 0L485.9 0Z" fill="#001428" stroke="#001428"></path><path d="M485.9 0L431.1 0L383.1 51Z" fill="#001122" stroke="#001122"></path><path d="M791.2 394L733.4 357L782.4 432Z" fill="#001324" stroke="#001324"></path><path d="M651.5 399L733.4 357L662.5 297Z" fill="#001427" stroke="#001427"></path><path d="M662.5 297L756.4 266L647.5 193Z" fill="#001427" stroke="#001427"></path><path d="M733.4 357L756.4 266L662.5 297Z" fill="#001223" stroke="#001223"></path><path d="M647.5 193L757.4 102L597.5 153Z" fill="#001325" stroke="#001325"></path><path d="M251.5 251L232.5 352L286.3 371Z" fill="#001326" stroke="#001326"></path><path d="M245.5 443L303.3 497L321.3 407Z" fill="#001325" stroke="#001325"></path><path d="M431.1 0L369.3 0L383.1 51Z" fill="#001324" stroke="#001324"></path><path d="M196.5 139L338.3 232L378.3 142Z" fill="#001326" stroke="#001326"></path><path d="M251.5 251L216.6 334L232.5 352Z" fill="#001123" stroke="#001123"></path><path d="M274.3 39L378.3 142L383.1 51Z" fill="#001324" stroke="#001324"></path><path d="M251.5 251L189.6 309L216.6 334Z" fill="#001224" stroke="#001224"></path><path d="M583.7 582L636.5 498L521.7 477Z" fill="#001325" stroke="#001325"></path><path d="M521.7 477L636.5 498L581.7 369Z" fill="#001326" stroke="#001326"></path><path d="M756.4 266L772.4 188L647.5 193Z" fill="#001325" stroke="#001325"></path><path d="M541.9 20L679.5 0L514.7 0Z" fill="#001427" stroke="#001427"></path><path d="M802.2 323L787.2 227L756.4 266Z" fill="#001224" stroke="#001224"></path><path d="M756.4 266L787.2 227L772.4 188Z" fill="#001427" stroke="#001427"></path><path d="M369.3 0L274.3 39L383.1 51Z" fill="#001427" stroke="#001427"></path><path d="M201.5 236L189.6 309L251.5 251Z" fill="#001122" stroke="#001122"></path><path d="M215.6 454L245.5 443L232.5 352Z" fill="#001122" stroke="#001122"></path><path d="M303.3 497L361.1 531L321.3 407Z" fill="#001324" stroke="#001324"></path><path d="M321.3 407L361.1 531L438.1 417Z" fill="#001122" stroke="#001122"></path><path d="M476.9 600L583.7 582L521.7 477Z" fill="#001223" stroke="#001223"></path><path d="M321.3 407L286.3 371L245.5 443Z" fill="#001326" stroke="#001326"></path><path d="M245.5 443L286.3 371L232.5 352Z" fill="#001427" stroke="#001427"></path><path d="M215.6 454L232.5 352L174.6 470Z" fill="#001324" stroke="#001324"></path><path d="M274.3 39L251.5 56L378.3 142Z" fill="#001326" stroke="#001326"></path><path d="M760.2 97L757.4 102L793.2 86Z" fill="#001223" stroke="#001223"></path><path d="M772.4 188L757.4 102L647.5 193Z" fill="#001123" stroke="#001123"></path><path d="M757.4 102L686.5 16L597.5 153Z" fill="#001325" stroke="#001325"></path><path d="M251.5 56L196.5 139L378.3 142Z" fill="#001427" stroke="#001427"></path><path d="M201.5 236L138.8 296L189.6 309Z" fill="#001428" stroke="#001428"></path><path d="M776.4 74L760.2 97L793.2 86Z" fill="#001324" stroke="#001324"></path><path d="M757.4 102L760.2 97L686.5 16Z" fill="#001325" stroke="#001325"></path><path d="M793.4 0L679.5 0L686.5 16Z" fill="#001428" stroke="#001428"></path><path d="M686.5 16L679.5 0L541.9 20Z" fill="#001428" stroke="#001428"></path><path d="M733.4 357L802.2 323L756.4 266Z" fill="#001122" stroke="#001122"></path><path d="M791.2 394L802.2 323L733.4 357Z" fill="#001122" stroke="#001122"></path><path d="M196.5 139L164.6 199L201.5 236Z" fill="#001326" stroke="#001326"></path><path d="M782.4 432L733.4 357L651.5 399Z" fill="#001223" stroke="#001223"></path><path d="M174.6 470L232.5 352L216.6 334Z" fill="#001122" stroke="#001122"></path><path d="M245.5 443L219.5 535L303.3 497Z" fill="#001122" stroke="#001122"></path><path d="M383.3 600L415.1 600L361.1 531Z" fill="#001428" stroke="#001428"></path><path d="M174.6 470L216.6 334L100.8 444Z" fill="#001123" stroke="#001123"></path><path d="M793.2 86L757.4 102L772.4 188Z" fill="#001326" stroke="#001326"></path><path d="M760.2 97L776.4 74L686.5 16Z" fill="#001326" stroke="#001326"></path><path d="M793.2 86L772.4 188L900 146Z" fill="#001427" stroke="#001427"></path><path d="M274.3 39L259.5 0L251.5 56Z" fill="#001428" stroke="#001428"></path><path d="M251.5 56L207.6 58L196.5 139Z" fill="#001224" stroke="#001224"></path><path d="M25.8 179L28.8 201L164.6 199Z" fill="#001427" stroke="#001427"></path><path d="M369.3 0L259.5 0L274.3 39Z" fill="#001325" stroke="#001325"></path><path d="M216.6 0L207.6 58L251.5 56Z" fill="#001223" stroke="#001223"></path><path d="M476.9 600L521.7 477L462.9 493Z" fill="#001427" stroke="#001427"></path><path d="M759.2 507L782.4 432L651.5 399Z" fill="#001326" stroke="#001326"></path><path d="M583.7 582L676.5 539L636.5 498Z" fill="#001123" stroke="#001123"></path><path d="M759.2 507L651.5 399L636.5 498Z" fill="#001427" stroke="#001427"></path><path d="M415.1 600L462.9 493L361.1 531Z" fill="#001325" stroke="#001325"></path><path d="M415.1 600L476.9 600L462.9 493Z" fill="#001324" stroke="#001324"></path><path d="M900 146L772.4 188L787.2 227Z" fill="#001325" stroke="#001325"></path><path d="M776.4 74L793.4 0L686.5 16Z" fill="#001122" stroke="#001122"></path><path d="M128.6 244L138.8 296L201.5 236Z" fill="#001324" stroke="#001324"></path><path d="M383.3 600L361.1 531L260.5 600Z" fill="#001325" stroke="#001325"></path><path d="M28.8 201L128.6 244L164.6 199Z" fill="#001325" stroke="#001325"></path><path d="M164.6 199L128.6 244L201.5 236Z" fill="#001427" stroke="#001427"></path><path d="M260.5 600L361.1 531L303.3 497Z" fill="#001326" stroke="#001326"></path><path d="M583.7 582L649.5 600L676.5 539Z" fill="#001223" stroke="#001223"></path><path d="M476.9 600L600.7 600L583.7 582Z" fill="#001428" stroke="#001428"></path><path d="M900 266L855.2 259L900 321Z" fill="#001223" stroke="#001223"></path><path d="M802.2 323L855.2 259L787.2 227Z" fill="#001326" stroke="#001326"></path><path d="M855.2 259L802.2 323L900 321Z" fill="#001427" stroke="#001427"></path><path d="M259.5 0L216.6 0L251.5 56Z" fill="#001326" stroke="#001326"></path><path d="M28.8 201L68.8 316L128.6 244Z" fill="#001223" stroke="#001223"></path><path d="M676.5 539L759.2 507L636.5 498Z" fill="#001224" stroke="#001224"></path><path d="M900 321L802.2 323L791.2 394Z" fill="#001123" stroke="#001123"></path><path d="M712.4 566L759.2 507L676.5 539Z" fill="#001123" stroke="#001123"></path><path d="M100.8 444L216.6 334L189.6 309Z" fill="#001122" stroke="#001122"></path><path d="M215.6 454L219.5 535L245.5 443Z" fill="#001326" stroke="#001326"></path><path d="M600.7 600L649.5 600L583.7 582Z" fill="#001326" stroke="#001326"></path><path d="M649.5 600L712.4 566L676.5 539Z" fill="#001326" stroke="#001326"></path><path d="M174.6 470L219.5 535L215.6 454Z" fill="#001427" stroke="#001427"></path><path d="M864.2 0L793.4 0L793.2 86Z" fill="#001123" stroke="#001123"></path><path d="M793.2 86L793.4 0L776.4 74Z" fill="#001324" stroke="#001324"></path><path d="M900 321L791.2 394L900 467Z" fill="#001224" stroke="#001224"></path><path d="M855.2 259L900 146L787.2 227Z" fill="#001324" stroke="#001324"></path><path d="M900 266L900 237L855.2 259Z" fill="#001427" stroke="#001427"></path><path d="M649.5 600L712.4 600L712.4 566Z" fill="#001428" stroke="#001428"></path><path d="M712.4 566L760.2 600L759.2 507Z" fill="#001427" stroke="#001427"></path><path d="M900 467L791.2 394L782.4 432Z" fill="#001122" stroke="#001122"></path><path d="M214.6 600L260.5 600L219.5 535Z" fill="#001122" stroke="#001122"></path><path d="M219.5 535L260.5 600L303.3 497Z" fill="#001224" stroke="#001224"></path><path d="M900 467L782.4 432L900 503Z" fill="#001122" stroke="#001122"></path><path d="M128.6 244L68.8 316L138.8 296Z" fill="#001325" stroke="#001325"></path><path d="M138.8 296L100.8 444L189.6 309Z" fill="#001324" stroke="#001324"></path><path d="M114.8 539L214.6 600L219.5 535Z" fill="#001427" stroke="#001427"></path><path d="M164.6 199L28.8 88L25.8 179Z" fill="#001326" stroke="#001326"></path><path d="M900 237L900 146L855.2 259Z" fill="#001427" stroke="#001427"></path><path d="M68.8 316L100.8 444L138.8 296Z" fill="#001122" stroke="#001122"></path><path d="M114.8 539L219.5 535L174.6 470Z" fill="#001122" stroke="#001122"></path><path d="M712.4 600L760.2 600L712.4 566Z" fill="#001223" stroke="#001223"></path><path d="M900 34L864.2 0L793.2 86Z" fill="#001223" stroke="#001223"></path><path d="M164.6 199L196.5 139L28.8 88Z" fill="#001326" stroke="#001326"></path><path d="M0 476L114.8 539L100.8 444Z" fill="#001123" stroke="#001123"></path><path d="M900 503L782.4 432L759.2 507Z" fill="#001428" stroke="#001428"></path><path d="M28.8 88L196.5 139L207.6 58Z" fill="#001324" stroke="#001324"></path><path d="M900 146L900 34L793.2 86Z" fill="#001427" stroke="#001427"></path><path d="M100.8 444L114.8 539L174.6 470Z" fill="#001326" stroke="#001326"></path><path d="M0 349L100.8 444L68.8 316Z" fill="#001325" stroke="#001325"></path><path d="M900 600L900 503L759.2 507Z" fill="#001427" stroke="#001427"></path><path d="M900 34L900 0L864.2 0Z" fill="#001326" stroke="#001326"></path><path d="M44.8 0L28.8 88L207.6 58Z" fill="#001326" stroke="#001326"></path><path d="M0 177L0 187L25.8 179Z" fill="#001326" stroke="#001326"></path><path d="M25.8 179L0 187L28.8 201Z" fill="#001326" stroke="#001326"></path><path d="M28.8 201L0 330L68.8 316Z" fill="#001427" stroke="#001427"></path><path d="M28.8 88L0 177L25.8 179Z" fill="#001326" stroke="#001326"></path><path d="M0 187L0 330L28.8 201Z" fill="#001224" stroke="#001224"></path><path d="M0 330L0 349L68.8 316Z" fill="#001326" stroke="#001326"></path><path d="M216.6 0L44.8 0L207.6 58Z" fill="#001123" stroke="#001123"></path><path d="M28.8 88L0 80L0 177Z" fill="#001224" stroke="#001224"></path><path d="M0 349L0 424L100.8 444Z" fill="#001428" stroke="#001428"></path><path d="M44.8 0L0 80L28.8 88Z" fill="#001223" stroke="#001223"></path><path d="M0 600L92.8 600L114.8 539Z" fill="#001123" stroke="#001123"></path><path d="M114.8 539L92.8 600L214.6 600Z" fill="#001326" stroke="#001326"></path><path d="M0 424L0 476L100.8 444Z" fill="#001326" stroke="#001326"></path><path d="M760.2 600L900 600L759.2 507Z" fill="#001122" stroke="#001122"></path><path d="M44.8 0L0 0L0 80Z" fill="#001224" stroke="#001224"></path><path d="M0 476L0 600L114.8 539Z" fill="#001326" stroke="#001326"></path></g></svg>