<svg id="visual" viewBox="0 0 900 600" width="900" height="600" xmlns="http://www.w3.org/2000/svg" xmlns:xlink="http://www.w3.org/1999/xlink" version="1.1"><rect x="0" y="0" width="900" height="600" fill="#FFFFFF"></rect><path d="M0 541L10.7 539.7C21.3 538.3 42.7 535.7 64.2 534.7C85.7 533.7 107.3 534.3 128.8 536.5C150.3 538.7 171.7 542.3 193 540.5C214.3 538.7 235.7 531.3 257 531.3C278.3 531.3 299.7 538.7 321.2 538.8C342.7 539 364.3 532 385.8 531.8C407.3 531.7 428.7 538.3 450 541.7C471.3 545 492.7 545 514.2 541.5C535.7 538 557.3 531 578.8 530.5C600.3 530 621.7 536 643 539.5C664.3 543 685.7 544 707 543.3C728.3 542.7 749.7 540.3 771.2 537.7C792.7 535 814.3 532 835.8 533.2C857.3 534.3 878.7 539.7 889.3 542.3L900 545L900 601L889.3 601C878.7 601 857.3 601 835.8 601C814.3 601 792.7 601 771.2 601C749.7 601 728.3 601 707 601C685.7 601 664.3 601 643 601C621.7 601 600.3 601 578.8 601C557.3 601 535.7 601 514.2 601C492.7 601 471.3 601 450 601C428.7 601 407.3 601 385.8 601C364.3 601 342.7 601 321.2 601C299.7 601 278.3 601 257 601C235.7 601 214.3 601 193 601C171.7 601 150.3 601 128.8 601C107.3 601 85.7 601 64.2 601C42.7 601 21.3 601 10.7 601L0 601Z" fill="#715df2"></path><path d="M0 556L10.7 553.8C21.3 551.7 42.7 547.3 64.2 548.5C85.7 549.7 107.3 556.3 128.8 556.3C150.3 556.3 171.7 549.7 193 546.8C214.3 544 235.7 545 257 547.3C278.3 549.7 299.7 553.3 321.2 555.2C342.7 557 364.3 557 385.8 557.3C407.3 557.7 428.7 558.3 450 555.5C471.3 552.7 492.7 546.3 514.2 543.2C535.7 540 557.3 540 578.8 540.7C600.3 541.3 621.7 542.7 643 544.8C664.3 547 685.7 550 707 551.7C728.3 553.3 749.7 553.7 771.2 551.7C792.7 549.7 814.3 545.3 835.8 546.3C857.3 547.3 878.7 553.7 889.3 556.8L900 560L900 601L889.3 601C878.7 601 857.3 601 835.8 601C814.3 601 792.7 601 771.2 601C749.7 601 728.3 601 707 601C685.7 601 664.3 601 643 601C621.7 601 600.3 601 578.8 601C557.3 601 535.7 601 514.2 601C492.7 601 471.3 601 450 601C428.7 601 407.3 601 385.8 601C364.3 601 342.7 601 321.2 601C299.7 601 278.3 601 257 601C235.7 601 214.3 601 193 601C171.7 601 150.3 601 128.8 601C107.3 601 85.7 601 64.2 601C42.7 601 21.3 601 10.7 601L0 601Z" fill="#003d8a"></path><path d="M0 566L10.7 567.2C21.3 568.3 42.7 570.7 64.2 570.2C85.7 569.7 107.3 566.3 128.8 565C150.3 563.7 171.7 564.3 193 564.5C214.3 564.7 235.7 564.3 257 565C278.3 565.7 299.7 567.3 321.2 569.2C342.7 571 364.3 573 385.8 573.5C407.3 574 428.7 573 450 573.2C471.3 573.3 492.7 574.7 514.2 575.3C535.7 576 557.3 576 578.8 575.2C600.3 574.3 621.7 572.7 643 570.3C664.3 568 685.7 565 707 565.2C728.3 565.3 749.7 568.7 771.2 569.5C792.7 570.3 814.3 568.7 835.8 568C857.3 567.3 878.7 567.7 889.3 567.8L900 568L900 601L889.3 601C878.7 601 857.3 601 835.8 601C814.3 601 792.7 601 771.2 601C749.7 601 728.3 601 707 601C685.7 601 664.3 601 643 601C621.7 601 600.3 601 578.8 601C557.3 601 535.7 601 514.2 601C492.7 601 471.3 601 450 601C428.7 601 407.3 601 385.8 601C364.3 601 342.7 601 321.2 601C299.7 601 278.3 601 257 601C235.7 601 214.3 601 193 601C171.7 601 150.3 601 128.8 601C107.3 601 85.7 601 64.2 601C42.7 601 21.3 601 10.7 601L0 601Z" fill="#001122"></path></svg>